<?xml version="1.0" standalone="no"?>
<!DOCTYPE svg PUBLIC "-//W3C//DTD SVG 20010904//EN"
 "http://www.w3.org/TR/2001/REC-SVG-20010904/DTD/svg10.dtd">
<svg version="1.0" xmlns="http://www.w3.org/2000/svg"
 width="700.000000pt" height="700.000000pt" viewBox="0 0 700.000000 700.000000"
 preserveAspectRatio="xMidYMid meet">
<metadata>
Created by potrace 1.14, written by Peter Selinger 2001-2017
</metadata>
<g transform="translate(0.000000,700.000000) scale(0.100000,-0.100000)"
fill="#000000" stroke="none">
<path d="M2255 6989 c-459 -66 -882 -361 -1293 -901 -45 -59 -82 -112 -82
-117 0 -5 -3 -11 -8 -13 -7 -3 -106 -154 -179 -273 -95 -154 -256 -463 -342
-655 -182 -404 -341 -846 -346 -959 -12 -296 279 -489 556 -368 44 20 131 97
158 141 12 18 43 99 71 180 50 146 130 364 156 421 7 17 24 57 37 90 40 99 87
200 184 395 211 424 447 767 683 993 416 399 750 396 1155 -8 168 -168 289
-327 353 -465 74 -160 61 -248 -51 -363 -86 -87 -178 -153 -362 -259 -77 -44
-467 -235 -650 -318 -137 -62 -482 -237 -590 -300 -102 -59 -303 -186 -315
-199 -3 -4 -32 -26 -65 -51 -88 -65 -120 -93 -230 -205 -278 -282 -408 -589
-408 -960 0 -661 442 -1351 1204 -1881 63 -44 121 -83 131 -89 9 -5 76 -45
148 -89 300 -179 643 -334 1007 -455 193 -65 460 -138 598 -165 11 -3 40 -9
65 -14 25 -6 62 -13 84 -16 21 -4 41 -8 45 -10 3 -2 31 -7 61 -10 30 -4 69 -8
85 -11 80 -13 89 -14 215 -30 220 -26 733 -27 900 -1 14 2 48 7 75 10 56 7 80
11 180 31 39 8 81 16 95 19 115 22 323 94 465 160 545 255 870 698 943 1286
10 77 8 403 -2 475 -28 191 -31 205 -71 365 -195 772 -647 1309 -1325 1571
-136 52 -347 110 -459 125 -19 2 -48 7 -65 10 -141 26 -475 36 -667 20 -80 -7
-101 -9 -189 -21 -19 -3 -53 -7 -75 -10 -38 -5 -55 -8 -115 -21 -14 -3 -36 -7
-50 -10 -86 -16 -286 -72 -410 -114 -262 -88 -480 -194 -690 -336 -123 -83
-147 -101 -245 -192 -309 -289 -421 -636 -304 -947 55 -148 190 -311 337 -409
217 -144 539 -254 906 -312 21 -3 48 -8 60 -10 57 -12 155 -4 211 17 311 114
349 525 65 700 -42 26 -89 39 -235 65 -258 46 -436 102 -555 175 -49 30 -49
31 -35 57 15 29 69 88 126 137 110 98 380 241 590 313 185 64 420 117 609 137
174 19 487 9 620 -19 115 -25 235 -57 275 -75 11 -5 56 -24 99 -42 101 -42
262 -150 346 -231 246 -237 370 -495 466 -973 3 -16 7 -104 9 -195 4 -182 -10
-280 -59 -399 -70 -172 -219 -323 -421 -423 -88 -44 -267 -104 -370 -124 -11
-2 -42 -8 -70 -14 -84 -16 -107 -20 -175 -25 -36 -4 -85 -8 -110 -10 -60 -6
-336 -6 -430 0 -86 5 -216 19 -305 31 -257 36 -532 99 -790 181 -106 34 -298
104 -340 123 -11 5 -49 21 -85 36 -173 70 -464 224 -629 331 -83 55 -265 186
-287 207 -6 6 -33 29 -60 51 -66 54 -229 218 -279 280 -22 27 -45 56 -52 63
-7 7 -37 49 -67 95 -154 232 -228 446 -221 642 2 75 8 104 34 165 49 117 150
240 281 340 25 19 47 37 50 40 11 13 150 101 235 149 50 29 97 56 105 61 8 5
94 48 189 96 162 80 219 108 436 209 445 206 750 381 935 534 462 381 573 865
319 1386 -160 330 -504 721 -821 934 -169 113 -375 202 -550 236 -95 19 -334
27 -423 14z"/>
</g>
</svg>
