<?xml version="1.0" encoding="UTF-8" ?>
<!DOCTYPE svg PUBLIC "-//W3C//DTD SVG 1.1//EN" "http://www.w3.org/Graphics/SVG/1.1/DTD/svg11.dtd">
<svg width="41pt" height="42pt" viewBox="0 0 41 42" version="1.1" xmlns="http://www.w3.org/2000/svg">
<g id="#999999ff">
<path fill="#999999" opacity="1.00" d=" M 23.58 8.60 C 27.32 5.44 31.05 1.67 36.00 0.62 C 39.14 -0.01 40.64 3.44 40.60 6.01 C 40.89 14.49 38.15 22.71 35.34 30.60 C 33.91 34.14 32.77 38.16 29.65 40.62 C 26.53 42.45 23.30 39.97 20.87 38.14 C 14.46 32.79 7.89 27.41 0.00 24.41 L 0.00 24.13 C 6.03 24.80 11.80 26.85 17.81 27.64 C 22.11 28.18 26.85 29.01 30.90 27.03 C 33.39 24.92 34.00 20.68 31.69 18.19 C 28.95 15.73 24.88 15.70 21.53 16.73 C 17.16 18.20 13.87 21.83 9.30 22.84 C 13.23 17.34 18.65 13.16 23.58 8.60 Z" />
</g>
</svg>
