<?xml version="1.0" encoding="UTF-8" ?>
<!DOCTYPE svg PUBLIC "-//W3C//DTD SVG 1.1//EN" "http://www.w3.org/Graphics/SVG/1.1/DTD/svg11.dtd">
<svg width="42pt" height="41pt" viewBox="0 0 42 41" version="1.1" xmlns="http://www.w3.org/2000/svg">
<g id="#999999ff">
<path fill="#999999" opacity="1.00" d=" M 0.91 6.10 C 1.79 1.83 6.77 -0.91 10.84 0.76 C 13.21 1.36 14.35 3.60 15.68 5.41 C 24.65 4.25 34.07 10.20 35.83 19.28 C 38.43 29.40 30.42 40.19 20.07 41.00 L 17.31 41.00 C 11.38 40.58 5.73 37.14 2.92 31.86 C -0.33 26.38 0.17 19.44 3.04 13.92 C 1.48 11.65 0.00 8.94 0.91 6.10 M 16.04 28.17 C 17.58 27.17 19.03 25.68 21.00 25.74 C 22.97 25.54 24.34 27.13 25.85 28.08 C 27.20 24.37 24.14 19.77 19.99 20.73 C 16.41 21.21 15.50 25.15 16.04 28.17 Z" />
<path fill="#999999" opacity="1.00" d=" M 33.37 1.16 C 36.35 -1.11 41.21 1.25 41.35 4.99 C 41.87 8.70 37.36 11.90 34.07 9.94 C 30.51 8.54 30.28 3.20 33.37 1.16 Z" />
</g>
</svg>
