<?xml version="1.0" encoding="UTF-8" ?>
<!DOCTYPE svg PUBLIC "-//W3C//DTD SVG 1.1//EN" "http://www.w3.org/Graphics/SVG/1.1/DTD/svg11.dtd">
<svg width="42pt" height="42pt" viewBox="0 0 42 42" version="1.1" xmlns="http://www.w3.org/2000/svg">
<g id="#999999ff">
<path fill="#999999" opacity="1.00" d=" M 15.09 1.98 C 19.26 -0.09 25.10 -0.05 28.29 3.75 C 32.10 8.18 31.54 14.61 29.89 19.83 C 29.26 22.87 27.43 26.54 29.54 29.35 C 33.01 30.83 36.67 27.80 40.27 28.71 C 43.26 31.73 40.83 36.83 37.42 38.42 C 31.29 41.62 23.67 42.24 17.14 39.94 C 14.51 39.18 12.89 35.98 14.77 33.67 C 18.46 28.89 23.43 25.04 25.95 19.40 C 21.11 19.78 17.69 23.62 13.46 25.52 C 10.07 27.08 5.82 28.58 2.36 26.42 C -0.07 23.85 0.98 19.97 2.16 17.06 C 4.85 10.95 8.94 4.99 15.09 1.98 Z" />
</g>
</svg>
